<svg width="777" height="141" viewBox="0 0 777 141" xmlns="http://www.w3.org/2000/svg" xmlns:xlink="http://www.w3.org/1999/xlink"><title>logo-axiomzen-blk</title><defs><path id="a" d="M.06.426h265.391v138.896H.06z"/></defs><g fill="none" fill-rule="evenodd"><g><mask id="b" fill="#fff"><use xlink:href="#a"/></mask><path d="M43.439 80.221c1.306-4.66 19.018-52.388 19.95-54.812.558-1.492 1.304-2.797 2.051-2.797.558 0 .931 1.305 1.49 2.61.933 2.797 16.034 49.406 17.713 54.999H43.439zm220.147 52.389h-8.576c-2.051 0-2.61-1.305-2.983-4.847-.186-2.05-.186-8.763-.186-16.033V91.407c0-15.473 0-27.219.372-30.389.187-1.305 0-2.237-.932-2.237-1.118 0-2.051.373-3.541 1.119-7.086 3.915-14.17 6.897-20.136 9.135-.933.373-1.305.746-1.305 1.305v1.678c0 .746.372 1.119 1.678 1.305 9.321 1.492 10.44 4.847 10.44 11.186v27.407c0 5.593 0 11.373-.186 16.965-.187 2.983-.933 3.729-2.984 3.729h-7.834-8.888c-3.356 0-5.966-1.305-8.203-3.915-8.204-9.881-15.661-21.44-23.119-32.44 3.916-4.848 19.763-24.423 22.933-27.034 1.863-1.491 3.728-2.237 7.271-2.237h2.983c1.305 0 1.49-.373 1.49-1.492v-3.355c0-1.119-.185-1.865-1.677-1.865-1.305 0-3.169.56-10.626.56-10.627 0-13.797-.56-16.034-.56-.746 0-.933.373-.933 1.492v3.916c0 .744.187 1.304 1.119 1.304h2.238c3.168 0 3.729 3.729 2.05 5.966l-14.169 18.644-11.559-18.271c-2.237-3.356-2.237-6.339.746-6.339h1.678c.746 0 1.119-.373 1.119-1.492v-3.541c0-1.119-.187-1.679-1.119-1.679-1.678 0-8.577.56-17.339.56-8.763 0-13.797-.56-15.288-.56-1.306 0-1.492.373-1.492 1.679v3.729c0 .558.186 1.304 1.305 1.304h5.221c2.61 0 5.219.746 6.711 2.61 4.289 4.661 14.915 19.949 22.001 30.949-3.17 3.542-20.509 26.66-24.052 29.83-1.491 1.491-2.258 1.948-7.643 2.237-5.385.288-7.276.358-12.941-.074-5.664-.431-9.639-2.722-12.808-8.874-2.611-5.408-14.729-40.085-19.017-54.627-3.542-11.932-18.085-53.694-21.626-65.439-.561-2.051-.934-3.17-2.051-3.17-.933 0-1.492.746-2.424 1.678-2.051 2.61-10.254 8.203-15.475 9.322-1.305.373-1.678 1.118-1.678 1.678 0 .746.746 1.678 1.305 2.424 1.306 2.051.373 4.474-.186 6.338-1.678 5.034-16.779 45.118-18.084 48.847-5.407 15.288-19.017 49.779-20.321 52.762-2.611 5.966-5.221 8.576-10.815 8.576H1.491c-.745 0-1.491.373-1.491 1.305v4.474c0 1.119.373 1.492 1.305 1.492H42.88c.932 0 1.492-.373 1.492-1.677v-4.289c0-.932-.56-1.305-1.865-1.305h-8.762c-4.102 0-6.339-1.492-6.339-4.102 0-.932.373-2.797.56-4.101.932-3.916 11.186-32.254 13.049-36.915H86.88c2.609 7.457 10.254 31.321 11.745 38.034 1.306 5.219-.372 7.084-5.593 7.084h-4.66c-1.119 0-1.679.186-1.679 1.305v4.289c0 1.117.56 1.677 1.492 1.677h80.188c1.119 0 1.306-.746 1.306-1.492v-3.728c0-.746-.187-1.492-.933-1.492h-3.915c-2.237 0-2.982-2.051-2.05-4.102 1.304-2.983 13.609-19.575 16.219-23.304l13.424 21.44c2.051 3.17.932 5.966-1.119 5.966h-2.797c-1.305 0-1.49.56-1.49 1.865v3.17c0 .931.185 1.677 1.49 1.677h75.265c1.305 0 1.678-.56 1.678-1.865v-3.168c0-1.119-.373-1.679-1.865-1.679z" fill="#1A1919" mask="url(#b)"/></g><path d="M305.628 135.407c-8.762 0-14.169-3.543-18.457-9.694-5.966-8.577-7.085-15.662-7.085-26.102 0-14.169 2.611-21.814 9.882-29.271 4.474-4.848 9.322-5.967 14.355-5.967 9.508 0 24.61 13.051 24.61 33.746 0 19.949-9.135 37.288-23.305 37.288zm.187-76.626c-6.152 0-15.287 1.491-24.983 8.949-11 8.575-16.033 20.507-16.033 30.017 0 13.237 1.678 20.135 10.254 30.388 7.83 9.322 19.389 12.865 28.338 12.865 22.933 0 41.203-20.695 41.203-41.016 0-12.118-4.288-21.814-12.678-30.39-5.592-5.592-15.847-10.813-26.101-10.813zM496.857 42.56l2.426 1.119c.558.373 1.117.56 1.676-.186 3.543-5.779 18.832-24.61 22.746-27.779 2.61-2.051 4.848-2.983 7.458-2.983h50.525c-1.052 1.802-55.317 77.631-74.511 103.456h20.767c23.722-32.778 75.198-102.846 77.979-106.066 2.051-2.424 1.679-4.426-1.305-4.474-.634-.01-2.788-.029-2.788-.029s-77.3-.028-87.633.029c-1.503.009-3.072-.01-3.818-.002-1.402.017-1.887.663-2.467 2.587l-11.426 32.65c-.375 1.119-.187 1.307.371 1.678" fill="#1A1919"/><path d="M612.822 105.577l-2.61-1.492c-.746-.373-1.118-.186-1.679.373-2.423 3.17-20.522 25.79-25.898 27.78-.94.348-4.862.465-4.862.465l-48.884-.087v.011h-45.315v-.02c-2.292-.006-4.653.003-4.653.003-2.238 0-3.917-.932-3.917-3.729V87.306c0-14.356-4.661-18.458-8.947-22.933-4.476-4.473-10.254-5.592-16.781-5.592-11.185 0-21.813 7.085-27.407 14.356h-.93c-3.915-8.764-11.375-14.356-21.067-14.356-10.813 0-21.814 6.526-27.407 14.169h-.559l-.746-10.813c0-1.305-.559-2.61-1.678-2.61-.746 0-2.051.373-3.543 1.118l-16.406 8.39c-.372.186-1.118.932-1.118 1.491v1.492c0 .559.373.932 1.305 1.492l3.914 2.051c4.475 2.424 5.221 5.779 5.221 9.508v33.185c0 3.17 0 6.525-.186 9.695-.187 3.543-1.119 4.661-2.797 4.661h-6.339c-1.864 0-2.237.187-2.237 1.679v3.356c0 1.304.373 1.677 1.492 1.677h34.304c1.305 0 1.492-.746 1.492-2.05v-2.983c0-1.306-.187-1.679-1.865-1.679h-6.711c-2.611 0-3.729-1.864-3.729-4.847V90.848c0-5.22.373-8.762 2.61-12.492 5.22-8.389 13.051-10.813 17.897-10.813 4.102 0 9.508 1.119 11.933 3.356 2.982 2.797 5.591 6.339 5.591 20.135v38.407c0 2.423-1.117 3.169-4.101 3.169h-5.407c-1.676 0-1.864.373-1.864 1.865v2.982c0 1.305.372 1.865 1.305 1.865h34.118c.934 0 1.305-.56 1.305-2.05v-2.983c0-1.306-.371-1.679-2.051-1.679h-6.339c-2.794 0-3.728-1.864-3.728-4.288V96.068c0-8.389-.187-13.423 2.61-18.83 2.984-5.406 10.628-9.695 16.22-9.695 5.593 0 10.441 1.305 13.797 3.916 4.288 3.356 5.406 8.762 5.406 14.915v27.592c0 4.102 0 10.813-.372 15.102-.187 2.61-1.679 3.542-3.73 3.542h-4.66c-2.051 0-2.423.373-2.423 1.679v3.168c0 1.305.372 1.865 1.49 1.865h144.946c1.213 0 1.669-.408 2.552-1.868.717-1.186 11.387-25.538 13.812-30.199.372-.746.185-1.305-.374-1.678M652.683 64.373c12.12 0 14.355 12.305 14.355 16.594 0 1.678-1.489 2.61-5.032 2.61h-28.899c3.543-13.796 11.375-19.204 19.576-19.204zm32.254 53.509l-2.422-1.306c-.559-.186-1.305.187-1.68.933-3.168 6.153-11.184 12.677-22.559 12.677-14.914 0-26.473-13.796-26.473-32.067 0-4.288.187-7.271.558-8.948h46.052c2.981 0 5.219-.373 5.219-2.984 0-7.271-5.965-27.406-27.407-27.406-9.321 0-18.642 1.678-26.66 9.881-9.88 9.881-11.744 22.372-11.744 29.644 0 13.051 1.677 19.948 8.203 29.457C632.92 137.83 644.666 141 655.295 141c16.591 0 26.286-12.865 29.642-20.322.933-2.051.559-2.61 0-2.796zM774.67 132.61h-5.965c-2.425 0-4.102-.932-4.102-3.915V80.594c0-4.66-4.66-13.983-10.254-17.711-4.476-2.983-10.254-4.102-15.848-4.102-9.321 0-20.134 6.899-25.543 13.61h-.371l-1.305-11.373c-.187-1.491-.559-2.237-1.492-2.237-.746 0-1.864.559-3.356 1.305l-16.032 8.949c-.933.373-1.679.932-1.679 1.864v.933c0 .559.187 1.118 1.492 1.678l1.492.745c4.66 2.238 7.642 5.407 7.642 11v43.626c0 3.17-1.305 3.729-3.728 3.729h-5.406c-1.492 0-1.864.56-1.864 1.679v3.356c0 1.117.372 1.677 1.305 1.677h32.813c.931 0 1.305-.56 1.305-1.677v-3.17c0-1.305-.374-1.865-1.866-1.865h-4.661c-3.914 0-4.473-1.118-4.473-6.153V87.866c0-3.543.559-8.577 4.286-12.678 5.594-5.967 12.12-7.272 15.102-7.272 4.66 0 9.136 0 13.61 3.356 5.406 3.916 5.406 9.322 5.406 16.78v24.61c0 4.847-.184 10.813-.371 15.66-.188 3.356-1.68 4.288-3.73 4.288h-5.407c-1.864 0-2.423.373-2.423 1.679v2.983c0 1.49.372 2.05 1.492 2.05h34.49c1.121 0 1.492-.746 1.492-2.05v-2.983c0-1.119-.371-1.679-2.051-1.679" fill="#1A1919"/></g></svg>